<svg width="449" height="212" viewBox="0 0 449 212" fill="none" xmlns="http://www.w3.org/2000/svg">
<rect y="52.424" width="432" height="160" transform="rotate(-6.97013 0 52.424)" fill="black"/>
<path d="M129.665 95.7008C129.707 96.0449 129.473 96.7022 128.963 97.6726C127.757 99.8107 126.047 101.958 123.831 104.115C121.61 106.237 119.038 107.477 116.113 107.835C113.016 108.214 110.38 107.645 108.204 106.13C106.024 104.581 104.721 102.068 104.296 98.5927C104.006 96.2184 104.091 93.4839 104.55 90.3892C105.01 87.2945 105.656 84.5788 106.488 82.2419C107.35 79.8664 108.431 77.8483 109.729 76.1878C111.063 74.523 112.486 73.5981 114 73.413C115.48 73.2321 116.681 73.6267 117.602 74.5966C118.559 75.5624 119.134 76.8367 119.327 78.4196C119.399 79.0046 119.352 79.6215 119.187 80.2703C119.052 80.8805 118.872 81.4089 118.647 81.8555C118.422 82.3021 118.241 82.5338 118.103 82.5506C117.828 82.5843 117.672 82.4462 117.634 82.1366C117.621 82.0333 117.645 81.8033 117.707 81.4466C117.798 81.0513 117.829 80.7332 117.799 80.4923C117.694 79.632 117.492 78.836 117.193 78.1042C116.941 77.4715 116.532 76.9802 115.965 76.6303C115.394 76.2461 114.799 76.0919 114.18 76.1676C111.702 76.4705 109.672 79.146 108.089 84.194C107.464 86.2262 107.007 88.4824 106.716 90.9627C106.426 93.4429 106.417 95.8014 106.691 98.0381C106.88 99.5865 107.362 100.959 108.137 102.157C108.946 103.35 109.982 104.254 111.245 104.868C112.542 105.478 113.982 105.686 115.565 105.492C118.077 105.185 120.274 104.305 122.157 102.853C124.074 101.396 125.915 99.5993 127.68 97.4627C127.74 97.3855 127.935 96.9775 128.264 96.2388C128.588 95.4657 128.854 95.0665 129.06 95.0413C129.267 95.0161 129.411 95.0509 129.492 95.1457C129.573 95.2405 129.631 95.4255 129.665 95.7008ZM157.671 85.3094C157.7 85.5503 157.663 85.8168 157.559 86.1089C157.49 86.3968 157.36 86.6222 157.17 86.7851C156.955 87.021 156.479 87.2712 155.743 87.5358C155.003 87.766 154.497 87.9152 154.226 87.9832C154.661 89.2572 154.877 89.8769 154.872 89.8425C155.218 90.6733 155.622 91.829 156.082 93.3094C157.126 96.7091 158.125 99.5906 159.077 101.954C159.346 102.724 159.489 103.178 159.506 103.316C159.548 103.66 159.446 103.969 159.2 104.244C158.954 104.518 158.642 104.679 158.263 104.725C157.919 104.767 157.586 104.616 157.265 104.271C156.948 103.96 156.72 103.674 156.584 103.411C156.131 102.279 155.678 101.007 155.227 99.5956C154.809 98.1798 154.304 96.4779 153.712 94.4897C153.465 93.6119 153.106 92.5381 152.637 91.2683C152.163 89.9642 151.849 89.112 151.696 88.7117C149.699 89.2352 146.274 90.2127 141.42 91.6444L138.489 92.5265L137.777 95.7044L136.837 100.01C136.091 103.908 135.584 106.904 135.316 108.997C135.272 109.492 135.114 109.913 134.842 110.26C134.574 110.642 134.217 110.86 133.77 110.915C133.391 110.961 133.052 110.898 132.751 110.725C132.485 110.548 132.329 110.271 132.282 109.892C132.236 109.514 132.344 108.68 132.605 107.39C132.871 106.136 133.023 105.383 133.063 105.134C133.158 104.773 133.337 103.948 133.598 102.659C133.882 101.262 134.252 99.5755 134.709 97.5988C135.196 95.5834 135.522 94.2514 135.687 93.6025C133.982 94.23 132.715 94.7168 131.884 95.0628C130.618 95.5668 129.831 95.8377 129.521 95.8755C129.143 95.9218 128.833 95.8199 128.593 95.5699C128.383 95.2812 128.257 94.9648 128.215 94.6207C128.165 94.2078 128.234 93.9199 128.424 93.757C128.609 93.5597 128.934 93.3628 129.399 93.1663C130.669 92.6967 132.008 92.2188 133.415 91.7324C134.857 91.2418 135.847 90.9112 136.385 90.7407C136.607 89.7007 136.762 88.8261 136.85 88.1169C136.933 87.6527 137.037 87.0811 137.164 86.402C137.321 85.6844 137.476 84.8098 137.629 83.7782L138.081 81.0512C138.825 76.2803 139.26 73.5554 139.387 72.8763C139.5 72.3735 139.609 71.9761 139.713 71.684C139.851 71.3877 140.058 71.2227 140.333 71.189C141.021 71.1049 141.653 71.1324 142.229 71.2715C142.29 71.1943 142.376 71.044 142.488 70.8208C142.631 70.5588 142.784 70.383 142.948 70.2931C143.142 70.1646 143.393 70.0815 143.703 70.0436C144.323 69.9679 145.114 70.5871 146.078 71.9011C147.076 73.211 148.072 74.7831 149.065 76.6176C149.651 77.6984 150.427 79.3323 151.393 81.5193C152.354 83.6718 152.982 85.0968 153.277 85.7942C153.785 85.6622 154.205 85.5236 154.536 85.3783C154.898 85.1944 155.128 85.0789 155.227 85.0319C155.391 84.9421 155.565 84.7985 155.751 84.6012C155.936 84.4039 156.111 84.2603 156.274 84.1705C156.434 84.0462 156.623 84.0231 156.842 84.1011C157.315 84.2528 157.591 84.6556 157.671 85.3094ZM150.953 86.4974C150.706 85.899 150.187 84.6528 149.396 82.7587C148.602 80.8302 147.888 79.276 147.255 78.0961C146.617 76.8819 145.838 75.65 144.917 74.4005C143.996 73.1511 143.256 72.3858 142.698 72.1048L142.294 73.5163C141.8 74.9038 141.446 76.1519 141.233 77.2607C140.71 79.8393 139.903 84.094 138.812 90.0249L144.725 88.2542L149.585 86.8742L150.953 86.4974ZM188.907 93.9588C188.962 94.4061 188.799 94.7927 188.42 95.1184C188.075 95.44 187.63 95.6516 187.083 95.7533L178.287 97.5097L172.208 98.7768L169.04 99.4261C168.764 99.4598 168.485 99.3193 168.202 99.0046C167.954 98.6858 167.811 98.3715 167.773 98.0618C167.743 97.8209 167.791 97.6404 167.916 97.5204C168.071 97.3617 168.233 97.2546 168.401 97.1992C168.599 97.1051 168.73 97.0367 168.795 96.9939C168.602 95.1315 168.089 90.7937 167.256 83.9804C166.642 78.9565 165.96 75.0933 165.211 72.391C164.491 69.65 164.119 68.1763 164.094 67.9698C164.035 67.4881 164.161 67.0885 164.471 66.7712C164.816 66.4496 165.178 66.2657 165.556 66.2194C165.797 66.19 165.999 66.2701 166.162 66.4597C166.321 66.6149 166.46 66.8948 166.579 67.2993C167.066 68.4272 167.587 70.5463 168.142 73.6566C168.731 76.7627 169.234 80.0191 169.651 83.4257C170.004 86.3162 170.315 89.0023 170.583 91.4841C170.852 93.9659 171.039 95.6369 171.144 96.4971C171.587 96.408 172.441 96.2513 173.706 96.0268C174.966 95.7679 176.261 95.5048 177.591 95.2375C179.557 94.7526 181.767 94.1158 184.22 93.3269C186.204 92.7002 187.402 92.3616 187.815 92.3111C188.194 92.2648 188.455 92.4074 188.601 92.7389C188.746 93.0704 188.848 93.477 188.907 93.9588ZM230.91 89.9238C230.939 90.1647 230.767 90.4652 230.392 90.8254C230.047 91.147 229.633 91.3372 229.152 91.3961C228.739 91.4466 228.41 91.4693 228.165 91.4644C227.915 91.425 227.724 91.2912 227.592 91.0629C227.219 90.5846 226.67 89.0975 225.946 86.6016C225.222 84.1057 224.469 81.2292 223.686 77.9721C221.628 67.9908 220.362 62.9243 219.89 62.7725C219.612 63.6446 219.219 65.2818 218.709 67.6841C218.195 70.0519 217.647 73.1399 217.065 76.948C216.413 81.0441 215.887 83.8849 215.488 85.4704C215.083 87.0216 214.679 87.9966 214.274 88.3954C214.028 88.6699 213.713 88.9529 213.33 89.2442C212.976 89.497 212.662 89.6401 212.387 89.6738C212.043 89.7159 211.815 89.7088 211.703 89.6526C211.587 89.562 211.433 89.3014 211.241 88.8709C211.04 88.3716 210.518 86.8115 209.673 84.1906C208.825 81.5352 208.13 79.1405 207.59 77.0063L207.015 74.8763C205.883 70.4744 205.183 68.028 204.913 67.5371C204.331 68.202 203.871 69.5854 203.535 71.6871C203.194 73.7544 202.87 76.6753 202.563 80.4498C202.189 83.3942 201.88 88.1469 201.634 94.7079C201.646 95.0906 201.43 95.4662 200.986 95.8348C200.542 96.2034 200.131 96.4108 199.753 96.4571C199.202 96.5244 198.827 96.0289 198.628 94.9706C198.463 93.9081 197.94 91.632 197.06 88.1425C196.213 84.6487 195.454 81.5808 194.782 78.9388C193.833 75.1782 192.746 71.7138 191.521 68.5458C191.154 67.5429 190.962 66.9727 190.945 66.835C190.882 66.3189 191.072 65.8765 191.516 65.5079C191.99 65.1007 192.52 64.8613 193.105 64.7898C193.38 64.7562 193.803 65.7871 194.373 67.8827C194.944 69.9783 195.599 72.6224 196.338 75.8149L196.701 77.4993C196.978 78.618 197.278 79.7862 197.601 81.004C198.899 86.1888 199.664 89.4481 199.897 90.7817C200.097 86.7059 200.381 82.6024 200.749 78.4712L200.936 76.1434C201.247 72.4033 201.737 69.5495 202.404 67.5819C203.067 65.58 204.104 64.4928 205.515 64.3203C205.963 64.2656 206.605 65.3746 207.441 67.6472C208.274 69.8854 209.034 72.534 209.722 75.5931C210.232 77.7659 210.805 79.8787 211.44 81.9314C212.075 83.9842 212.598 85.4046 213.009 86.1926C213.144 85.5824 213.399 84.2415 213.774 82.17C214.184 80.0942 214.555 78.128 214.887 76.2714C215.87 70.3187 217.031 64.9556 218.368 60.182C218.624 59.4173 218.888 58.8612 219.159 58.5136C219.461 58.1275 220.025 57.8839 220.851 57.7829C221.299 57.7282 222.02 59.6307 223.016 63.4904C224.012 67.3501 224.997 71.8397 225.972 76.9592C227.793 84.1406 229.122 88.012 229.959 88.5732C230.53 88.9575 230.847 89.4077 230.91 89.9238ZM280.086 86.0596C280.137 86.4726 280.007 86.8377 279.696 87.155C279.39 87.5068 278.979 87.7142 278.463 87.7773C277.774 87.8615 277.05 87.2167 276.288 85.843C275.561 84.465 275.034 83.0102 274.707 81.4786C274.409 80.1878 273.899 77.1593 273.177 72.3931C272.864 70.4057 272.661 69.1732 272.568 68.6957C270.9 74.7669 268.802 80.1748 266.274 84.9194C263.78 89.6597 261.191 92.1939 258.507 92.5221C257.165 92.6861 255.896 92.0205 254.701 90.5252C253.539 89.0257 252.534 86.9483 251.686 84.293C250.833 81.6033 250.207 78.6239 249.807 75.3549C249.484 72.7053 249.272 69.6927 249.174 66.317C249.071 62.9069 249.153 60.4347 249.42 58.9003C249.507 58.4706 249.656 58.1205 249.868 57.8502C250.109 57.5413 250.402 57.3658 250.746 57.3237C251.607 57.2185 252.077 57.4929 252.157 58.1467C252.169 58.2499 251.994 59.5286 251.63 61.9829C251.267 64.4371 251.482 68.9161 252.278 75.4196C252.803 79.7209 253.632 83.2168 254.765 85.9073C255.927 88.5592 257.248 89.7947 258.728 89.6138C260.173 89.4371 261.75 88.0568 263.46 85.4729C265.166 82.8546 266.713 79.8015 268.103 76.3138C269.527 72.8218 270.501 69.7866 271.024 67.2081C271.351 65.317 271.378 62.5372 271.104 58.8687C271.035 57.4452 271.031 56.6949 271.091 56.6176C271.324 56.2399 271.716 56.0173 272.267 55.95C272.886 55.8743 273.299 56.6795 273.505 58.3656C273.753 60.3958 274.276 64.2435 275.073 69.9086C275.905 75.5695 276.499 79.1465 276.857 80.6395C277.15 81.8958 277.513 82.8643 277.945 83.5449C278.412 84.2212 278.881 84.775 279.353 85.2063C279.825 85.6375 280.069 85.922 280.086 86.0596ZM313.423 78.7361C313.473 79.149 313.362 79.669 313.089 80.296C312.817 80.9231 312.491 81.2597 312.113 81.306C311.769 81.3481 311.436 81.3364 311.113 81.2711C310.787 81.1713 310.293 80.9872 309.631 80.7188C307.308 79.7107 304.317 78.819 300.66 78.0437C299.049 77.7168 297.143 77.4085 294.942 77.1188C292.771 76.7904 291.067 76.5622 289.829 76.4342L291.004 83.0484C291.152 83.9733 291.367 84.7328 291.65 85.327C291.936 85.9555 292.09 86.3558 292.111 86.5279C292.157 86.9064 292.006 87.2392 291.657 87.5264C291.312 87.848 290.933 88.034 290.52 88.0845C290.004 88.1476 289.633 87.8262 289.407 87.1204C289.398 87.0516 289.309 86.7482 289.138 86.2103C289.002 85.6681 288.873 84.8981 288.751 83.9002C288.671 83.2464 288.432 81.8612 288.033 79.7446C287.911 79.0261 287.792 78.3421 287.678 77.6925C287.559 77.0085 287.468 76.4085 287.405 75.8923C287.289 75.8017 287.137 75.6981 286.948 75.5815C286.794 75.4607 286.65 75.2861 286.517 75.0579C286.376 74.7608 286.25 74.4444 286.139 74.1087C286.029 73.773 285.963 73.5192 285.942 73.3471C285.912 73.1062 285.958 72.9086 286.079 72.7541C286.199 72.5996 286.387 72.4195 286.641 72.2138C285.383 63.6365 284.678 58.7284 284.527 57.4896C284.392 56.3885 284.285 55.3713 284.206 54.438C284.127 53.5047 284.068 52.8832 284.031 52.5735C283.828 52.6332 283.219 52.7949 282.204 53.0587C281.188 53.3226 280.379 53.5612 279.777 53.7746C277.638 54.56 276.03 55.263 274.953 55.8835C273.838 56.4739 272.783 57.1268 271.787 57.8422C271.503 58.0865 271.232 58.2943 270.973 58.4656C270.676 58.6067 270.39 58.6941 270.115 58.7277C269.839 58.7614 269.584 58.6704 269.348 58.4548C269.108 58.2047 268.964 57.8904 268.918 57.5119C268.838 56.8581 269.847 55.9665 271.944 54.837C274.041 53.7075 276.346 52.7097 278.86 51.8436C280.267 51.3572 282.077 50.8741 284.288 50.3942C286.495 49.8798 288.562 49.5049 290.489 49.2693C293.793 48.8654 296.641 48.8839 299.035 49.3246C301.463 49.7612 303.342 50.5618 304.672 51.7263C306.037 52.8867 306.822 54.3099 307.028 55.996C307.293 58.1639 306.901 60.0978 305.851 61.7977C304.802 63.4976 303.314 65.0416 301.388 66.4295C299.497 67.8133 296.885 69.4423 293.551 71.3166C292.707 71.8389 291.859 72.3268 291.006 72.7803C290.188 73.2296 289.633 73.542 289.34 73.7175C289.365 73.924 289.401 74.0767 289.448 74.1757C293.265 74.5472 297.046 75.0455 300.789 75.6705L301.911 75.8477C305.801 76.5247 308.68 77.0807 310.549 77.5157C312.414 77.9164 313.372 78.3231 313.423 78.7361ZM304.447 56.3115C304.308 55.176 303.681 54.1875 302.565 53.346C301.45 52.5045 299.841 51.9154 297.739 51.5786C295.668 51.2032 293.204 51.1901 290.348 51.5393C288.214 51.8001 286.876 51.9986 286.334 52.1347C286.329 52.3798 286.347 52.9539 286.388 53.8569C286.463 54.7558 286.555 55.6526 286.664 56.5473L287.88 64.7805L288.869 71.1556C289.175 71.0834 289.758 70.8549 290.619 70.4702C291.51 70.047 292.249 69.6598 292.834 69.3088C296.99 67.0196 300.027 64.8671 301.946 62.8514C303.895 60.797 304.729 58.617 304.447 56.3115ZM106.641 153.982C106.771 155.048 106.464 155.68 105.72 155.875C104.769 156.096 102.535 156.823 99.019 158.057C95.5328 159.251 92.9741 160.175 91.3426 160.829C91.4352 161.586 91.6308 163.186 91.9295 165.629C92.2584 168.033 92.5603 170.074 92.8353 171.752C92.9496 172.402 93.1068 173.116 93.3068 173.895C93.5412 174.669 93.6966 175.227 93.7731 175.567C94.131 176.78 94.3247 177.507 94.3541 177.748C94.4004 178.127 94.2784 178.7 93.9883 179.469C93.7367 180.268 93.4905 180.683 93.2496 180.712C93.0088 180.742 92.7704 180.648 92.5344 180.433C92.2985 180.217 92.1251 179.942 92.0142 179.606C91.4808 178.099 90.9329 175.617 90.3703 172.158C89.6808 167.947 89.1909 164.654 88.9007 162.28C88.6984 162.339 88.3627 162.45 87.8936 162.612C87.4547 162.736 87.0653 162.836 86.7254 162.912C86.3813 162.954 86.0094 162.913 85.6099 162.787C85.2103 162.661 84.9958 162.478 84.9664 162.237C84.9327 161.961 84.9935 161.745 85.1487 161.586C85.3384 161.423 85.5494 161.292 85.7819 161.194C86.0101 161.061 86.1738 160.972 86.2728 160.925C87.4485 160.257 88.2344 159.829 88.6305 159.641L86.8103 148.181C84.3144 148.905 82.4643 149.341 81.2599 149.488C79.9179 149.652 78.9489 149.439 78.3528 148.848C77.7911 148.253 77.4766 147.681 77.4093 147.13C77.3715 146.82 77.5762 146.638 78.0235 146.584C78.0924 146.575 78.5028 146.647 79.2549 146.8C80.0413 146.948 80.7099 146.989 81.2604 146.921C82.3616 146.787 84.0955 146.4 86.4621 145.762C86.4537 145.693 86.4394 145.432 86.4191 144.981C86.3946 144.495 86.4969 144.046 86.7259 143.634C86.8601 143.303 86.9897 143.078 87.1147 142.958C87.2397 142.838 87.3883 142.767 87.5603 142.746C88.2141 142.666 88.6294 143.349 88.806 144.794C89.2752 144.632 90.3339 144.293 91.9821 143.777C93.6648 143.257 95.5904 142.725 97.759 142.18C99.9276 141.636 101.821 141.264 103.438 141.067C104.745 140.907 105.431 141.085 105.494 141.601C105.544 142.014 105.455 142.566 105.225 143.258C105.03 143.946 104.743 144.312 104.364 144.359C104.227 144.376 104.081 144.324 103.926 144.203C103.767 144.047 103.652 143.957 103.578 143.931C103.252 143.831 102.796 143.817 102.211 143.888C101.145 144.019 99.0384 144.503 95.8929 145.342C92.7818 146.176 90.5398 146.835 89.1669 147.317L90.8975 158.473C92.6968 157.764 95.4729 156.761 99.2259 155.464C102.979 154.167 105.182 153.479 105.836 153.399C106.111 153.365 106.307 153.394 106.423 153.484C106.534 153.541 106.607 153.706 106.641 153.982ZM126.398 145.122C126.411 145.226 126.31 145.395 126.094 145.631C125.908 145.828 125.747 145.936 125.609 145.952C125.368 145.982 124.696 145.767 123.592 145.308C122.523 144.845 121.413 144.335 120.262 143.777L118.703 143.025C118.845 144.474 118.929 146.018 118.955 147.656C119.011 149.256 118.988 150.499 118.887 151.384C118.869 151.526 118.774 151.747 118.601 152.048C118.459 152.31 118.336 152.447 118.232 152.46C117.716 152.523 117.42 152.384 117.343 152.044C117.19 151.644 116.94 150.033 116.595 147.211L116.013 143.301L114.661 144.671C113.203 146.177 112.315 147.054 111.996 147.302C111.553 147.671 111.004 147.895 110.35 147.975C110.247 147.988 110.12 147.951 109.97 147.864C109.819 147.778 109.736 147.666 109.719 147.528C109.648 146.943 109.664 146.505 109.768 146.213C109.872 145.921 110.014 145.659 110.196 145.427C110.411 145.191 110.564 145.015 110.655 144.899C111.078 144.359 112.515 143.118 114.967 141.176L112.23 139.782C111.336 139.333 110.501 138.928 109.724 138.569C108.977 138.172 108.558 137.891 108.469 137.728C108.383 137.598 108.216 137.374 107.967 137.055C107.719 136.737 107.578 136.44 107.544 136.164C107.527 136.027 107.627 135.84 107.842 135.604C108.088 135.329 108.314 135.18 108.521 135.154C108.865 135.112 109.185 135.16 109.481 135.299C109.885 135.459 110.883 136.053 112.476 137.081L115.302 138.778L114.684 133.72C114.613 133.135 114.594 132.7 114.63 132.417C114.695 132.094 114.882 131.914 115.192 131.876C115.915 131.788 116.449 132.02 116.796 132.571C117.122 132.95 117.575 134.938 118.154 138.534C119.304 137.66 120.364 136.902 121.333 136.26C122.337 135.613 123.028 135.267 123.407 135.22C123.544 135.203 123.656 135.26 123.742 135.389C123.823 135.484 123.872 135.6 123.889 135.738C123.918 135.978 123.84 136.198 123.655 136.395C123.5 136.554 123.392 136.671 123.332 136.749C122.879 137.328 121.383 138.663 118.845 140.755C119.145 140.928 120.296 141.485 122.297 142.428C122.559 142.571 123.21 142.893 124.249 143.395C125.288 143.896 125.87 144.227 125.994 144.386C126.075 144.481 126.157 144.576 126.238 144.671C126.32 144.765 126.373 144.916 126.398 145.122ZM144.897 142.861C144.91 142.964 144.808 143.134 144.593 143.37C144.407 143.567 144.246 143.674 144.108 143.691C143.867 143.72 143.195 143.506 142.091 143.047C141.022 142.584 139.912 142.073 138.761 141.516L137.202 140.763C137.344 142.213 137.428 143.757 137.454 145.395C137.51 146.995 137.487 148.237 137.386 149.123C137.368 149.265 137.273 149.486 137.1 149.786C136.958 150.048 136.835 150.185 136.731 150.198C136.215 150.261 135.919 150.123 135.842 149.783C135.689 149.383 135.439 147.772 135.094 144.95L134.512 141.04L133.16 142.41C131.702 143.915 130.814 144.792 130.495 145.041C130.052 145.409 129.503 145.633 128.849 145.713C128.746 145.726 128.619 145.689 128.469 145.603C128.318 145.516 128.235 145.404 128.218 145.267C128.147 144.682 128.163 144.243 128.267 143.951C128.371 143.659 128.513 143.397 128.695 143.165C128.91 142.929 129.063 142.754 129.154 142.638C129.577 142.097 131.014 140.856 133.466 138.915L130.729 137.521C129.835 137.071 129 136.667 128.223 136.308C127.476 135.91 127.057 135.63 126.967 135.466C126.882 135.337 126.715 135.113 126.466 134.794C126.218 134.475 126.077 134.178 126.043 133.903C126.026 133.765 126.126 133.578 126.341 133.342C126.587 133.068 126.813 132.918 127.02 132.893C127.364 132.851 127.684 132.899 127.98 133.037C128.384 133.197 129.382 133.791 130.975 134.819L133.801 136.516L133.183 131.458C133.112 130.873 133.093 130.439 133.129 130.155C133.194 129.833 133.381 129.653 133.691 129.615C134.414 129.526 134.948 129.758 135.295 130.309C135.621 130.689 136.074 132.676 136.653 136.273C137.803 135.399 138.863 134.64 139.832 133.998C140.836 133.351 141.527 133.005 141.906 132.959C142.043 132.942 142.155 132.998 142.241 133.127C142.322 133.222 142.371 133.338 142.388 133.476C142.417 133.717 142.339 133.936 142.154 134.133C141.999 134.292 141.891 134.41 141.831 134.487C141.377 135.066 139.882 136.402 137.344 138.493C137.644 138.666 138.795 139.224 140.796 140.167C141.058 140.309 141.709 140.631 142.748 141.133C143.787 141.635 144.369 141.965 144.493 142.124C144.574 142.219 144.656 142.314 144.737 142.409C144.819 142.504 144.872 142.654 144.897 142.861ZM178.536 159.022C178.591 159.47 178.536 159.878 178.371 160.247C178.207 160.617 178.004 160.816 177.763 160.845C176.077 161.052 172.341 160.338 166.553 158.706L165.084 158.257C163.021 157.671 161.414 157.239 160.263 156.96C159.145 156.678 158.071 156.46 157.04 156.307C157.561 160.574 157.824 163.58 157.828 165.326C157.618 166.748 157.203 167.498 156.583 167.573C156.274 167.611 155.971 167.561 155.674 167.423C155.412 167.28 155.265 167.071 155.231 166.796C155.155 166.176 155.104 165.327 155.077 164.248C155.014 162.02 154.886 160.115 154.692 158.532L154.427 156.364C154.054 156.165 153.77 155.99 153.577 155.839C153.414 155.65 153.318 155.435 153.289 155.194C153.251 154.884 153.303 154.598 153.446 154.336C153.619 154.036 153.813 153.768 154.028 153.532C154.24 153.261 154.389 153.051 154.475 152.901C154.421 152.174 154.285 150.916 154.066 149.126C153.519 144.653 152.304 140 150.421 135.166L150.088 134.159C150.03 133.677 150.173 133.275 150.517 132.954C150.897 132.628 151.344 132.433 151.861 132.37C152.239 132.324 152.708 133.018 153.267 134.451C153.861 135.88 154.419 137.733 154.942 140.009C155.461 142.25 155.861 144.524 156.143 146.83L156.566 150.288C156.984 149.713 157.923 148.393 159.382 146.329C160.841 144.264 162.265 142.204 163.656 140.148C165.983 136.616 167.733 133.503 168.905 130.81C169.2 130.076 169.555 129.124 169.971 127.956C170.356 126.826 170.618 126.253 170.756 126.236C171.134 126.19 171.374 126.58 171.475 127.405C171.597 128.403 171.56 129.386 171.364 130.353C171.163 131.285 170.834 132.303 170.375 133.407C169.618 135.211 168.704 137.017 167.632 138.824C166.591 140.593 165.233 142.627 163.559 144.928C162.929 145.773 162.372 146.505 161.889 147.122C161.406 147.74 160.985 148.298 160.627 148.796C159.056 150.804 157.811 152.475 156.891 153.81C157.36 153.928 158.438 154.18 160.127 154.567C161.85 154.95 164.074 155.429 166.799 156.004C168.737 156.431 170.351 156.775 171.64 157.036C172.925 157.263 174.034 157.477 174.966 157.677C175.181 157.721 175.433 157.778 175.721 157.847C176.004 157.882 176.307 157.933 176.63 157.998C177.846 158.233 178.481 158.575 178.536 159.022ZM208.214 159.585C208.264 159.998 207.618 160.286 206.276 160.45C206.036 160.48 204.193 158.837 200.749 155.521C197.336 152.166 194.505 149.299 192.259 146.919C191.937 146.575 190.906 145.426 189.166 143.473C186.611 140.573 185.035 138.827 184.439 138.236L184.822 142.223L185.244 146.101C185.542 148.544 185.832 151.198 186.112 154.062C186.427 156.922 186.653 159.2 186.79 160.894C186.806 161.311 186.663 161.713 186.361 162.099C186.094 162.481 185.788 162.693 185.444 162.735C185.065 162.782 184.777 162.712 184.58 162.527C184.413 162.303 184.289 161.864 184.209 161.21C184.159 160.797 184.072 159.515 183.949 157.365C183.775 153.37 183.524 150.03 183.196 147.346C182.935 145.213 182.723 143.196 182.561 141.295C182.394 139.359 182.283 138.168 182.228 137.721L182.097 136.217L182.078 136.063C182.032 135.684 182.048 135.385 182.126 135.166C182.234 134.909 182.477 134.757 182.856 134.71L183.114 134.679C183.492 134.632 184.316 135.23 185.586 136.472C186.885 137.675 188.538 139.342 190.545 141.471C190.982 141.907 191.403 142.344 191.806 142.784C192.204 143.189 192.584 143.579 192.944 143.954C195.213 146.227 196.407 147.425 196.527 147.55C202.175 153.181 205.275 156.399 205.827 157.205C205.725 156.938 205.526 156.316 205.232 155.339C204.938 154.362 204.606 153.076 204.237 151.48C203.901 149.879 203.628 148.219 203.418 146.498C203.044 143.436 202.257 139.428 201.058 134.476C200.684 132.845 200.474 131.84 200.427 131.462C200.268 130.154 200.927 129.41 202.407 129.229C202.751 129.187 203.053 129.517 203.314 130.218C203.57 130.886 203.871 132.351 204.218 134.613C204.564 136.876 205.043 140.502 205.652 145.492C205.846 147.074 206.087 148.617 206.375 150.118C206.698 151.615 206.983 152.943 207.229 154.1C207.599 155.696 207.834 156.907 207.935 157.733L208.214 159.585ZM260.072 121.603C260.105 121.878 260.021 122.186 259.818 122.525C259.611 122.829 259.318 123.005 258.939 123.051C258.836 123.064 258.464 123.022 257.824 122.926C257.213 122.791 256.65 122.755 256.134 122.818C254.482 123.02 252.618 123.335 250.54 123.764C248.462 124.192 246.753 124.646 245.415 125.124C245.72 126.763 246.126 129.368 246.632 132.938C247.169 136.469 247.677 140.197 248.156 144.119C248.358 145.771 248.549 147.616 248.728 149.655C248.942 151.689 249.027 152.954 248.982 153.448C248.96 153.835 248.757 154.174 248.373 154.466C248.024 154.753 247.643 154.922 247.23 154.972C246.989 155.002 246.77 154.924 246.573 154.738C246.376 154.553 246.26 154.322 246.227 154.047L246.057 152.234C245.936 149.525 245.635 146.209 245.155 142.286C244.811 139.464 244.383 136.251 243.872 132.647C243.357 129.007 243.013 126.762 242.839 125.91C236.05 127.509 231.542 128.776 229.316 129.711C228.92 129.899 228.464 130.025 227.948 130.088C227.329 130.164 226.699 130.014 226.059 129.638C225.42 129.262 225.068 128.816 225.005 128.3C224.963 127.956 225.037 127.702 225.227 127.539C225.412 127.342 225.66 127.225 225.969 127.187C227.918 126.844 229.557 126.539 230.887 126.271C233.915 125.622 237.717 124.72 242.291 123.567C242.16 122.501 242.085 121.742 242.065 121.29C242.079 120.834 242.172 120.596 242.344 120.575C242.998 120.495 243.614 120.681 244.194 121.134C244.309 121.225 244.429 121.49 244.553 121.929C244.672 122.333 244.74 122.604 244.757 122.742C245.51 122.615 246.727 122.292 248.41 121.772C252.055 120.732 254.565 120.128 255.942 119.96C257.594 119.758 258.72 119.83 259.321 120.176C259.733 120.405 259.983 120.88 260.072 121.603ZM292.681 116.202C292.761 116.856 292.491 117.36 291.871 117.715C291.251 118.071 290.319 118.447 289.075 118.843C287.698 119.291 285.942 119.785 283.808 120.325C281.67 120.831 279.934 121.2 278.6 121.433C278.678 122.926 279.062 127.209 279.752 134.285C280.443 141.36 280.977 146.586 281.355 149.962C283.209 149.7 285.637 149.281 288.64 148.705C291.169 148.256 292.589 148.012 292.899 147.974C293.518 147.899 294.085 147.969 294.601 148.185C295.151 148.398 295.461 148.796 295.533 149.381C295.592 149.863 295.548 150.217 295.401 150.445C295.289 150.668 294.974 150.811 294.458 150.875C294.252 150.9 293.678 150.918 292.736 150.928C292.031 150.874 291.437 150.877 290.956 150.936C289.338 151.134 286.116 151.632 281.29 152.432C281.147 152.694 280.962 152.891 280.734 153.024C280.544 153.187 280.363 153.279 280.191 153.3C279.985 153.325 279.772 153.299 279.553 153.221C279.334 153.143 279.194 153.003 279.135 152.8L276.843 153.342C274.201 154.015 272.227 154.431 270.919 154.591C269.784 154.729 268.894 154.594 268.25 154.183C267.907 153.946 267.691 153.466 267.602 152.743C267.577 152.537 267.649 152.266 267.817 151.931C268.021 151.592 268.242 151.408 268.483 151.378C268.552 151.37 268.823 151.442 269.295 151.593C269.798 151.707 270.256 151.738 270.669 151.687C271.942 151.532 273.809 151.234 276.27 150.793L278.625 150.348L278.007 142.723C277.945 141.927 277.893 141.217 277.852 140.594C277.806 139.936 277.756 139.383 277.702 138.936L276.154 121.994C272.605 122.673 270.916 123.001 271.088 122.98C267.612 123.685 265.564 124.075 264.945 124.151C264.36 124.222 263.786 124.1 263.224 123.785C262.661 123.469 262.344 123.019 262.273 122.434C262.222 122.021 262.286 121.682 262.463 121.416C262.674 121.145 262.969 120.987 263.348 120.941C263.623 120.907 263.9 120.891 264.18 120.891C264.459 120.892 264.739 120.893 265.018 120.894C265.9 120.96 266.736 120.946 267.527 120.849C268.284 120.756 269.723 120.528 271.844 120.164C273.961 119.765 275.378 119.505 276.097 119.382C276.076 118.93 276.187 118.55 276.429 118.241C276.666 117.898 277.009 117.699 277.456 117.644C277.662 117.619 277.851 117.736 278.023 117.994C278.194 118.253 278.301 118.554 278.343 118.898C280.33 118.585 283.871 117.698 288.966 116.237C289.371 116.118 289.795 115.874 290.239 115.505C290.717 115.132 290.991 114.942 291.06 114.933C291.404 114.891 291.747 114.989 292.091 115.226C292.434 115.464 292.631 115.789 292.681 116.202ZM330.691 112.97C330.724 113.245 330.64 113.552 330.437 113.891C330.229 114.196 329.936 114.371 329.558 114.418C329.455 114.43 329.083 114.388 328.442 114.292C327.832 114.157 327.269 114.121 326.753 114.184C325.101 114.386 323.236 114.702 321.158 115.13C319.08 115.559 317.372 116.012 316.033 116.49C316.339 118.129 316.744 120.734 317.251 124.304C317.787 127.836 318.295 131.563 318.775 135.486C318.977 137.138 319.167 138.983 319.347 141.021C319.561 143.056 319.645 144.32 319.601 144.815C319.579 145.202 319.375 145.541 318.992 145.832C318.643 146.119 318.262 146.288 317.849 146.339C317.608 146.368 317.389 146.29 317.192 146.105C316.994 145.919 316.879 145.689 316.845 145.413L316.676 143.601C316.554 140.891 316.254 137.575 315.774 133.653C315.429 130.831 315.002 127.618 314.491 124.013C313.976 120.374 313.632 118.128 313.458 117.277C306.668 118.875 302.161 120.142 299.935 121.078C299.539 121.266 299.083 121.391 298.567 121.455C297.947 121.53 297.318 121.38 296.678 121.004C296.039 120.629 295.687 120.183 295.624 119.666C295.582 119.322 295.656 119.069 295.845 118.906C296.031 118.709 296.278 118.591 296.588 118.553C298.537 118.21 300.176 117.905 301.505 117.638C304.534 116.988 308.336 116.087 312.91 114.934C312.779 113.867 312.704 113.108 312.683 112.656C312.698 112.201 312.791 111.962 312.963 111.941C313.617 111.861 314.233 112.048 314.812 112.501C314.928 112.592 315.048 112.856 315.171 113.295C315.291 113.7 315.359 113.971 315.376 114.108C316.128 113.982 317.346 113.658 319.029 113.138C322.674 112.099 325.184 111.495 326.561 111.327C328.212 111.125 329.339 111.197 329.94 111.542C330.352 111.771 330.602 112.247 330.691 112.97ZM360.854 132.123C361.064 133.843 360.687 135.618 359.724 137.447C358.79 139.238 357.337 140.778 355.364 142.066C353.43 143.386 351.138 144.207 348.488 144.531C346.252 144.804 344.456 144.832 343.102 144.613C341.753 144.429 341.038 144.01 340.958 143.356C340.916 143.012 341.087 142.415 341.472 141.565C341.888 140.676 342.233 140.214 342.508 140.181C342.921 140.13 343.138 140.191 343.159 140.363C343.172 140.466 343.118 140.595 342.997 140.75C342.91 140.9 342.876 141.044 342.892 141.181C342.905 141.285 343.13 141.414 343.569 141.57C344.041 141.722 344.735 141.829 345.651 141.892C346.567 141.955 347.661 141.908 348.934 141.752C350.965 141.504 352.688 140.892 354.106 139.915C355.557 138.935 356.622 137.791 357.301 136.486C357.98 135.181 358.25 133.96 358.111 132.825C357.93 131.345 357.052 130.16 355.476 129.27C353.935 128.376 351.522 127.641 348.239 127.064C345.054 126.441 342.579 125.905 340.813 125.458C339.077 124.971 337.634 124.309 336.484 123.472C335.33 122.6 334.666 121.459 334.494 120.048C334.262 118.156 335.102 116.167 337.012 114.083C338.919 111.964 341.368 110.145 344.361 108.627C347.349 107.074 350.185 106.133 352.869 105.805C354.246 105.637 355.019 105.822 355.19 106.36C355.36 106.898 355.487 107.511 355.572 108.199C355.635 108.715 355.477 108.996 355.098 109.043C354.926 109.064 354.714 109.037 354.46 108.963C354.237 108.851 354.035 108.771 353.854 108.723C353.64 108.68 353.39 108.64 353.107 108.605C352.823 108.57 352.423 108.584 351.907 108.647C350.118 108.866 348.024 109.593 345.625 110.829C343.227 112.066 341.183 113.485 339.493 115.089C337.837 116.688 337.087 118.125 337.243 119.398C337.369 120.43 337.892 121.274 338.81 121.93C339.763 122.582 340.978 123.097 342.456 123.475C343.93 123.819 346.006 124.229 348.684 124.705C352.603 125.343 355.542 126.241 357.5 127.399C359.492 128.552 360.61 130.127 360.854 132.123Z" fill="white"/>
</svg>
